<svg xmlns="http://www.w3.org/2000/svg" viewBox="0 0 24 24" fill="#333334"><path d="M4.459 4.208c.746.606 1.026.56 2.428.466l13.215-.793c.28 0 .047-.28-.046-.326L18.57 2.29c-.42-.326-.98-.7-2.054-.607L3.62 2.87c-.466.046-.56.28-.374.466zm.793 3.08v13.904c0 .747.373 1.027 1.214.98l14.523-.84c.84-.046.933-.56.933-1.167V6.354c0-.606-.233-.933-.746-.886l-15.177.886c-.56.047-.747.327-.747.934zm14.337.745c.093.42 0 .84-.42.888l-.7.14v10.264c-.607.327-1.167.514-1.634.514-.747 0-.933-.234-1.494-.934l-4.577-7.186v6.952l1.447.327s0 .84-1.167.84l-3.22.187c-.093-.187 0-.653.327-.727l.84-.233V9.854L7.822 9.76c-.094-.42.14-1.026.793-1.073l3.454-.233 4.763 7.28V9.34l-1.213-.14c-.094-.514.28-.886.747-.933zM3.2 1.49l13.402-.84c1.634-.14 2.054-.047 3.08.7l4.25 2.987c.7.513.933.653.933 1.213V21.29c0 1.027-.373 1.634-1.68 1.727L7.496 23.86c-.98.047-1.447-.093-1.96-.747l-3.127-4.06c-.56-.747-.793-1.307-.793-1.96V3.357c0-.84.374-1.54 1.587-1.867z" fill-rule="evenodd"/></svg>