<svg xmlns="http://www.w3.org/2000/svg" viewBox="0 0 24 24" fill="#333334"><path d="M15.337 3.054c-.022-.013-.042-.013-.065-.004-.02.009-1.311.37-1.311.37s-.87-.84-.965-.936a.674.674 0 0 0-.574-.263l-.002 0h-.065c-.024-.03-.053-.056-.083-.078-.204-.148-.472-.218-.8-.207a5.19 5.19 0 0 0-.51.052 3.775 3.775 0 0 0-.766-1.33C9.625.058 8.915 0 8.38 0c-2.08 0-3.073 2.6-3.384 3.922l-1.45.45c-.427.134-.44.147-.496.553-.042.302-1.173 9.042-1.173 9.042L9.6 15.5l5.927-1.283s-2.162-11.135-2.19-11.163zM11.53 3.81l-1.592.493c.152-.59.44-1.178.828-1.562a1.63 1.63 0 0 1 .637-.382c.117.41.136.968.127 1.451zM10.47 1.93a.98.98 0 0 1 .544.16c-.6.282-1.24.994-1.51 2.416l-1.265.392C8.563 3.67 9.281 1.93 10.47 1.93zM8.438 7.84c.048.74 1.998.9 2.108 2.637.085 1.367-.725 2.3-1.893 2.373-1.403.088-2.175-.738-2.175-.738l.296-1.262s.775.585 1.394.546c.405-.025.55-.355.535-.588-.063-.966-1.65-.908-1.753-2.496-.086-1.336.794-2.69 2.73-2.812.745-.048 1.126.143 1.126.143l-.444 1.66s-.49-.224-1.074-.183c-.852.058-.864.663-.85.816z"/><path d="M15.572 3.02L17.87 15.1l-4.3.93s-1.838-9.454-1.855-9.56 1.29-.39 1.29-.39.928-.29 1.037-.335c.068-.028.073-.04.058-.11-.045-.224-.528-2.614-.528-2.614z" opacity=".6"/></svg>