<svg xmlns="http://www.w3.org/2000/svg" viewBox="0 0 24 24" fill="none">
  <!-- Official Solana logo mark - three parallel slanted bars -->
  <defs>
    <linearGradient id="sol" x1="0" y1="0" x2="24" y2="24" gradientUnits="userSpaceOnUse">
      <stop offset="0%" stop-color="#9945FF"/>
      <stop offset="50%" stop-color="#14F195"/>
      <stop offset="100%" stop-color="#00D1FF"/>
    </linearGradient>
  </defs>
  <path d="M5.26 16.7a.75.75 0 0 1 .53-.22h14.46a.375.375 0 0 1 .265.64l-3.03 3.03a.75.75 0 0 1-.53.22H2.48a.375.375 0 0 1-.265-.64L5.26 16.7z" fill="url(#sol)"/>
  <path d="M5.26 3.63a.77.77 0 0 1 .53-.22h14.46a.375.375 0 0 1 .265.64l-3.03 3.03a.75.75 0 0 1-.53.22H2.48a.375.375 0 0 1-.265-.64L5.26 3.63z" fill="url(#sol)"/>
  <path d="M18.74 10.12a.75.75 0 0 0-.53-.22H3.75a.375.375 0 0 0-.265.64l3.03 3.03a.75.75 0 0 0 .53.22h14.46a.375.375 0 0 0 .265-.64l-3.03-3.03z" fill="url(#sol)"/>
</svg>
