<svg xmlns="http://www.w3.org/2000/svg" viewBox="0 0 48 48">
  <circle cx="24" cy="24" r="24" fill="#8b5cf6"/>
  <g transform="translate(12,8)">
    <ellipse cx="12" cy="6" rx="10" ry="5" fill="none" stroke="#fff" stroke-width="2.5"/>
    <path d="M2 6v8c0 2.8 4.5 5 10 5s10-2.2 10-5V6" fill="none" stroke="#fff" stroke-width="2.5"/>
    <path d="M2 14v8c0 2.8 4.5 5 10 5s10-2.2 10-5v-8" fill="none" stroke="#fff" stroke-width="2.5"/>
    <path d="M2 11c0 2.8 4.5 5 10 5s10-2.2 10-5" fill="none" stroke="#fff" stroke-width="2"/>
    <path d="M2 19c0 2.8 4.5 5 10 5s10-2.2 10-5" fill="none" stroke="#fff" stroke-width="2"/>
  </g>
</svg>
