<svg xmlns="http://www.w3.org/2000/svg" viewBox="0 0 48 48">
  <circle cx="24" cy="24" r="24" fill="#5865F2"/>
  <path d="M31.2 17.5a20.3 20.3 0 0 0-5-1.6l-.2.5c1.8.4 3.5 1 5.1 1.9a18.7 18.7 0 0 0-15.2 0c1.6-.9 3.3-1.5 5.1-1.9l-.2-.5a20.3 20.3 0 0 0-5 1.6c-3.2 4.8-4 9.5-3.6 14.1a20.4 20.4 0 0 0 6.2 3.1l.5-.7.4-.7c-.8-.3-1.5-.6-2.2-1l.5-.4a14.5 14.5 0 0 0 12.4 0l.5.4c-.7.4-1.4.8-2.2 1l.4.7.5.7a20.4 20.4 0 0 0 6.2-3.1c.5-5.3-.9-9.9-3.6-14.1zM19.8 28.8c-1.2 0-2.2-1.1-2.2-2.5s1-2.5 2.2-2.5 2.3 1.1 2.2 2.5c0 1.4-1 2.5-2.2 2.5zm8.4 0c-1.2 0-2.2-1.1-2.2-2.5s1-2.5 2.2-2.5 2.3 1.1 2.2 2.5c0 1.4-1 2.5-2.2 2.5z" fill="#fff"/>
</svg>
