<svg xmlns="http://www.w3.org/2000/svg" viewBox="0 0 48 48">
  <circle cx="24" cy="24" r="24" fill="#fff"/>
  <g transform="translate(8,11)">
    <path d="M2 4.5V24a2 2 0 0 0 2 2h5V12.8L16 18l7-5.2V26h5a2 2 0 0 0 2-2V4.5L27.5 1H4.5L2 4.5z" fill="#f2f2f2"/>
    <path d="M2 4.5V7l14 10.5L30 7V4.5L16 15 2 4.5z" fill="#ea4335"/>
    <path d="M0 6l9 6.75V26H4a4 4 0 0 1-4-4V6z" fill="#c5221f"/>
    <path d="M32 6l-9 6.75V26h5a4 4 0 0 0 4-4V6z" fill="#c5221f"/>
    <path d="M2 4.5L16 15 30 4.5 27.5 1H4.5L2 4.5z" fill="#ea4335"/>
  </g>
</svg>
