<svg xmlns="http://www.w3.org/2000/svg" viewBox="0 0 48 48">
  <circle cx="24" cy="24" r="24" fill="#fff"/>
  <g transform="translate(10,10)">
    <path d="M14 0A14 14 0 1 0 14 28 14 14 0 0 0 14 0zm0 2.5a11.3 11.3 0 0 1 5.4 1.4l-2 2.3a9 9 0 0 0-3.4-.7 9 9 0 0 0-3.4.7l-2-2.3A11.3 11.3 0 0 1 14 2.5z" fill="#4285F4"/>
    <path d="M2.5 14c0-2.1.6-4.1 1.6-5.8l2.3 1.6A9.1 9.1 0 0 0 5 14c0 1.5.4 3 1.1 4.2l-2.2 1.9A11.5 11.5 0 0 1 2.5 14z" fill="#EA4335"/>
    <path d="M14 25.5c-2.1 0-4.1-.6-5.8-1.6l1.6-2.3c1.3.7 2.7 1.1 4.2 1.1s2.9-.4 4.2-1.1l1.6 2.3A11.5 11.5 0 0 1 14 25.5z" fill="#34A853"/>
    <path d="M25.5 14c0 2.1-.6 4.1-1.6 5.8l-2.3-1.6c.7-1.3 1.1-2.7 1.1-4.2s-.4-2.9-1.1-4.2l2.3-1.6A11.5 11.5 0 0 1 25.5 14z" fill="#FBBC05"/>
    <circle cx="14" cy="14" r="5" fill="#4285F4"/>
    <circle cx="14" cy="14" r="2.5" fill="#fff"/>
  </g>
</svg>
